<?xml version="1.0" encoding="UTF-8"?>
<!-- Generated by Pixelmator Pro 3.2.3 -->
<svg width="1351" height="147" viewBox="0 0 1351 147" xmlns="http://www.w3.org/2000/svg" xmlns:xlink="http://www.w3.org/1999/xlink">
    <path id="path1" fill="#3c3e3d" stroke="none" d="M 59.347198 146.546997 C 40.915199 146.546997 26.4426 141.222 15.9296 130.572998 C 5.41651 119.922997 0.159973 104.290001 0.159973 83.673599 L 0.159973 1.75354 L 15.9296 1.75354 L 15.9296 83.264 C 15.9296 100.194 19.6842 112.619003 27.1936 120.538002 C 34.7029 128.455994 45.420799 132.416 59.347198 132.416 C 73.410103 132.416 84.196198 128.455994 91.705597 120.538002 C 99.214897 112.619003 102.970001 100.194 102.970001 83.264 L 102.970001 1.75354 L 118.330002 1.75354 L 118.330002 83.673599 C 118.330002 104.427002 113.072998 120.127998 102.559998 130.778 C 92.183403 141.291 77.779198 146.546997 59.347198 146.546997 Z"/>
    <path id="path2" fill="#3c3e3d" stroke="none" d="M 278.481995 145.113998 L 261.278015 145.113998 L 228.714996 99.238297 C 225.302002 99.647903 221.546997 99.852798 217.451004 99.852798 L 179.358002 99.852798 L 179.358002 145.113998 L 163.589005 145.113998 L 163.589005 86.335999 L 217.042007 86.335999 C 231.378006 86.335999 242.164001 83.264 249.399994 77.119904 C 256.77301 70.975998 260.459015 62.237801 260.459015 50.905602 C 260.459015 39.573303 256.77301 30.835098 249.399994 24.6912 C 242.164001 18.547104 231.378006 15.475098 217.042007 15.475098 L 163.589005 15.475098 L 163.589005 1.75354 L 217.451004 1.75354 C 226.598999 1.75354 234.791 2.914063 242.026993 5.235138 C 249.399994 7.419678 255.612 10.628204 260.664001 14.860703 C 265.716003 19.0933 269.539001 24.281502 272.132996 30.425598 C 274.863007 36.432999 276.229004 43.259705 276.229004 50.905602 C 276.229004 62.237801 273.362 71.726898 267.627014 79.372803 C 262.028992 87.0186 254.042007 92.548203 243.666 95.961601 L 278.481995 145.113998 Z"/>
    <path id="path3" fill="#3c3e3d" stroke="none" d="M 311.789001 1.75354 L 374.048004 1.75354 C 390.158997 1.75354 402.583008 4.962067 411.321991 11.379105 C 420.059998 17.796204 424.428986 26.875702 424.428986 38.6175 C 424.428986 46.809601 422.449005 53.6362 418.48999 59.097504 C 414.529999 64.422302 409.34201 68.381798 402.924988 70.975998 C 411.936005 73.1605 419.036011 77.2565 424.223999 83.264 C 429.411987 89.134903 432.006012 96.985603 432.006012 106.816002 C 432.006012 119.103996 427.501007 128.593002 418.48999 135.283005 C 409.477997 141.837006 396.029999 145.113998 378.144012 145.113998 L 311.789001 145.113998 L 311.789001 132.210999 L 377.734009 132.210999 C 390.295013 132.210999 399.852997 130.095001 406.406006 125.862 C 412.959991 121.629997 416.237 114.871002 416.237 105.586998 C 416.237 96.302902 412.959991 89.544502 406.406006 85.311996 C 399.852997 81.079399 390.295013 78.963203 377.734009 78.963203 L 311.789001 78.963203 L 311.789001 65.855904 L 372.819 65.855904 C 384.287994 65.855904 393.093994 63.7397 399.238007 59.507202 C 405.519012 55.274597 408.658997 48.857498 408.658997 40.255905 C 408.658997 31.654297 405.519012 25.237305 399.238007 21.0047 C 393.093994 16.772202 384.287994 14.655899 372.819 14.655899 L 311.789001 14.655899 L 311.789001 1.75354 Z"/>
    <path id="path4" fill="#3c3e3d" stroke="none" d="M 460.040009 145.113998 L 443.656006 145.113998 L 508.987 1.75354 L 524.552002 1.75354 L 590.088013 145.113998 L 573.499023 145.113998 L 516.77002 18.137604 L 460.040009 145.113998 Z"/>
    <path id="path5" fill="#3c3e3d" stroke="none" d="M 629.357971 145.113998 L 613.588989 145.113998 L 613.588989 1.75354 L 626.491028 1.75354 L 718.036987 117.056 L 718.036987 1.75354 L 733.80603 1.75354 L 733.80603 145.113998 L 720.903992 145.113998 L 629.357971 29.811096 L 629.357971 145.113998 Z"/>
    <path id="path6" fill="#3c3e3d" stroke="none" d="M 833.989014 145.113998 L 833.989014 1.75354 L 849.757996 1.75354 L 849.757996 131.391998 L 929.630005 131.391998 L 929.630005 145.113998 L 833.989014 145.113998 Z"/>
    <path id="path7" fill="#3c3e3d" stroke="none" d="M 949.23999 145.113998 L 932.856018 145.113998 L 998.187012 1.75354 L 1013.75 1.75354 L 1079.290039 145.113998 L 1062.699951 145.113998 L 1005.969971 18.137604 L 949.23999 145.113998 Z"/>
    <path id="path8" fill="#3c3e3d" stroke="none" d="M 1102.790039 1.75354 L 1165.050049 1.75354 C 1181.160034 1.75354 1193.579956 4.962067 1202.319946 11.379105 C 1211.060059 17.796204 1215.430054 26.875702 1215.430054 38.6175 C 1215.430054 46.809601 1213.449951 53.6362 1209.48999 59.097504 C 1205.530029 64.422302 1200.339966 68.381798 1193.920044 70.975998 C 1202.939941 73.1605 1210.040039 77.2565 1215.219971 83.264 C 1220.410034 89.134903 1223.01001 96.985603 1223.01001 106.816002 C 1223.01001 119.103996 1218.5 128.593002 1209.48999 135.283005 C 1200.47998 141.837006 1187.030029 145.113998 1169.140015 145.113998 L 1102.790039 145.113998 L 1102.790039 132.210999 L 1168.72998 132.210999 C 1181.300049 132.210999 1190.849976 130.095001 1197.410034 125.862 C 1203.959961 121.629997 1207.23999 114.871002 1207.23999 105.586998 C 1207.23999 96.302902 1203.959961 89.544502 1197.410034 85.311996 C 1190.849976 81.079399 1181.300049 78.963203 1168.72998 78.963203 L 1102.790039 78.963203 L 1102.790039 65.855904 L 1163.819946 65.855904 C 1175.290039 65.855904 1184.089966 63.7397 1190.23999 59.507202 C 1196.52002 55.274597 1199.660034 48.857498 1199.660034 40.255905 C 1199.660034 31.654297 1196.52002 25.237305 1190.23999 21.0047 C 1184.089966 16.772202 1175.290039 14.655899 1163.819946 14.655899 L 1102.790039 14.655899 L 1102.790039 1.75354 Z"/>
    <path id="path9" fill="#3c3e3d" stroke="none" d="M 1297.319946 146.546997 C 1291.859985 146.546997 1286.469971 146.069 1281.150024 145.113998 C 1275.959961 144.158005 1271.040039 142.860992 1266.400024 141.222 C 1261.76001 139.584 1257.459961 137.604004 1253.5 135.283005 C 1249.670044 132.962006 1246.400024 130.436005 1243.670044 127.706001 L 1249.810059 115.622002 C 1252.410034 118.080002 1255.410034 120.401001 1258.819946 122.585999 C 1262.369995 124.769997 1266.199951 126.612999 1270.290039 128.115005 C 1274.390015 129.617004 1278.689941 130.845993 1283.189941 131.802002 C 1287.839966 132.621002 1292.47998 133.029999 1297.119995 133.029999 C 1303.810059 133.029999 1309.540039 132.416 1314.319946 131.186996 C 1319.099976 129.822006 1323.060059 128.046997 1326.199951 125.862 C 1329.339966 123.541 1331.660034 120.878998 1333.160034 117.875 C 1334.670044 114.735001 1335.420044 111.458 1335.420044 108.044998 C 1335.420044 103.129997 1334.119995 99.170097 1331.530029 96.166397 C 1329.069946 93.0261 1325.790039 90.500198 1321.699951 88.588799 C 1317.599976 86.540802 1312.890015 84.834099 1307.560059 83.468803 C 1302.23999 82.103401 1296.849976 80.738098 1291.390015 79.372803 C 1285.920044 78.007401 1280.530029 76.437302 1275.209961 74.662399 C 1269.880005 72.887398 1265.170044 70.566399 1261.079956 67.699203 C 1256.97998 64.695396 1253.630005 61.009003 1251.040039 56.6399 C 1248.579956 52.270905 1247.349976 46.741302 1247.349976 40.051201 C 1247.349976 34.726303 1248.380005 29.674599 1250.430054 24.895905 C 1252.609985 20.117302 1255.819946 15.884705 1260.050049 12.198303 C 1264.420044 8.511932 1269.880005 5.644745 1276.439941 3.596741 C 1283.130005 1.412216 1291.040039 0.319946 1300.189941 0.319946 C 1308.380005 0.319946 1316.439941 1.480484 1324.359985 3.801544 C 1332.280029 6.122604 1339.170044 9.262878 1345.040039 13.222305 L 1339.51001 25.715202 C 1333.369995 21.755699 1326.880005 18.820206 1320.060059 16.908707 C 1313.22998 14.860703 1306.609985 13.8367 1300.189941 13.8367 C 1293.640015 13.8367 1287.969971 14.519394 1283.189941 15.884705 C 1278.550049 17.250092 1274.660034 19.0933 1271.52002 21.414299 C 1268.52002 23.735397 1266.26001 26.466103 1264.76001 29.6063 C 1263.400024 32.6101 1262.709961 35.886902 1262.709961 39.436699 C 1262.709961 44.351898 1263.939941 48.3797 1266.400024 51.520004 C 1268.98999 54.523697 1272.339966 57.0495 1276.439941 59.097504 C 1280.530029 61.1455 1285.23999 62.852203 1290.569946 64.217598 C 1295.890015 65.582901 1301.280029 66.948196 1306.75 68.313599 C 1312.209961 69.678902 1317.599976 71.249001 1322.920044 73.023903 C 1328.25 74.798897 1332.959961 77.119904 1337.060059 79.987198 C 1341.150024 82.854301 1344.430054 86.472504 1346.890015 90.841599 C 1349.47998 95.074097 1350.780029 100.467003 1350.780029 107.021004 C 1350.780029 112.346001 1349.689941 117.397003 1347.5 122.176003 C 1345.449951 126.955002 1342.180054 131.186996 1337.670044 134.873993 C 1333.300049 138.423004 1327.77002 141.291 1321.079956 143.475006 C 1314.390015 145.522995 1306.469971 146.546997 1297.319946 146.546997 Z"/>
</svg>
